<?xml version="1.0" encoding="utf-8"?>
<!-- Generator: Adobe Illustrator 26.0.0, SVG Export Plug-In . SVG Version: 6.00 Build 0)  -->
<svg version="1.1" id="Layer_1" xmlns="http://www.w3.org/2000/svg" xmlns:xlink="http://www.w3.org/1999/xlink" x="0px" y="0px"
	 viewBox="0 0 640 480" style="enable-background:new 0 0 640 480;" xml:space="preserve">
<style type="text/css">
	.st0{fill:#009345;}
	.st1{fill:#006838;}
	.st2{fill:#39B54A;}
	.st3{font-family:'Calibri-Italic';}
	.st4{font-size:138.7026px;}
	.st5{fill:#754C28;}
	.st6{font-family:'Roboto-Black';}
</style>
<g>
	<g>
		<g>
			<path class="st0" d="M339.2,230.3c-38.8-20.3-42.2-42.2-42.6-47.6c-3.8-40.5,63.5-75.2,101.5-87.3c50-15.9,94.7-7.8,118-1.1"/>
			<path class="st1" d="M339,230.7c-36-15.1-63.2-47.4-33.6-83.6c13.5-16.3,31.9-27.6,50.4-37.1c12.3-6.3,25.1-11.7,38.2-16
				c39.4-12.6,82.8-12.1,122,0.3c-39.5-10.1-81.9-9-120.3,4.6c-32.3,11.2-102.4,46.7-95,87.8c5,19.5,22.2,32.5,38.7,43.3
				C339.4,230,339,230.7,339,230.7L339,230.7z"/>
		</g>
		<g>
			<path class="st0" d="M339.2,230.3c16.6,42.3,40.2,51.9,47.2,54.2c50.3,17,119.3-44.8,134.4-111.9c7.6-33.5,0.4-62.6-4.8-78.3"/>
			<path class="st1" d="M339.2,230.3c12.2,24.2,30.5,50.8,59.6,52.9c42,1.9,79.4-32.1,100.6-65.8c23.9-36.7,29.7-81.4,16.5-123.2
				c10.2,26.6,12.3,57.4,5,85.6C499.3,266,379.6,353.4,339.2,230.3L339.2,230.3z"/>
		</g>
		<g>
			<path class="st1" d="M516,94.3c-67.9,108.5-191.5,173.9-319.9,163.4l2.6-23.9c59.4,8.5,121.3,0,176.4-24.6
				C431.2,184.3,479.8,143.9,516,94.3L516,94.3z"/>
		</g>
	</g>
	<text transform="matrix(1 0 0 1 -2.441406e-04 357.0432)" class="st2 st3 st4">Leaf</text>
	<text transform="matrix(1 0 0 1 238.1829 357.0432)" class="st5 st6 st4">Bound</text>
</g>
</svg>
